<?xml version="1.0" encoding="UTF-8"?>
<svg version="1.1" xmlns="http://www.w3.org/2000/svg" width="333" height="126">
<path d="M0 0 C1.18628242 -0.02672287 1.18628242 -0.02672287 2.39653015 -0.0539856 C9.69334417 -0.20849358 16.9914518 -0.29593348 24.28953552 -0.36397934 C29.18429286 -0.41009801 34.0766473 -0.47739175 38.97021484 -0.59667969 C43.71485846 -0.71188797 48.4573498 -0.77195053 53.20330811 -0.79450226 C55.0023079 -0.81217751 56.80123419 -0.8487833 58.59942627 -0.90550995 C74.10010923 -1.37131275 74.10010923 -1.37131275 80.50447083 4.11123276 C82.85102477 6.3849207 84.99015168 8.80982024 87.1171875 11.28808594 C88.49003137 12.60376917 89.87657489 13.9056825 91.2890625 15.17871094 C93.08366981 16.86187582 94.87652023 18.54687207 96.66796875 20.23339844 C97.56322266 21.07257812 97.56322266 21.07257812 98.4765625 21.92871094 C99.02870926 22.46616943 99.58085602 23.00362793 100.1497345 23.55737305 C102.03664191 25.33350335 102.03664191 25.33350335 104.18632507 26.47338867 C106.87539454 28.17698403 108.35771692 29.60935489 110.1171875 32.28808594 C111.34065436 38.66563764 111.21388954 44.98592084 111.15234375 51.45996094 C111.16240973 53.34851098 111.17584263 55.23704582 111.19248962 57.12554932 C111.22652553 62.08299481 111.21212648 67.03918476 111.18835449 71.99664307 C111.17680356 76.05012612 111.198781 80.10309875 111.22266483 84.15650558 C111.27174646 92.52284099 111.29902618 100.88942214 111.26586914 109.25585938 C111.2662468 110.02888901 111.26662445 110.80191864 111.26701355 111.59837341 C111.24684653 114.76142836 111.12497456 117.26472477 110.1171875 120.28808594 C98.90335564 120.61415632 87.6906717 120.86205496 76.4730444 121.01345634 C71.26245777 121.08616983 66.05514042 121.18457111 60.84643555 121.34423828 C55.8080913 121.49769572 50.77286543 121.58032988 45.73236275 121.61636734 C43.8212025 121.64200434 41.91019079 121.69207128 40.00037956 121.76830673 C30.4486724 122.13401186 23.12893255 122.04737535 15.69375706 115.50398445 C13.2707094 113.12946396 10.98968132 110.66574169 8.76059151 108.1090889 C6.05188529 105.10765892 3.0512858 102.43406698 0.0546875 99.72558594 C-0.45442893 99.25307467 -0.96354536 98.78056339 -1.48808956 98.2937336 C-3.92172249 96.03593209 -6.26520883 94.02938945 -9.02163696 92.16462708 C-10.85087465 90.63268877 -11.75192807 89.73639489 -12.42492294 87.43123436 C-12.62142034 85.14747492 -12.62537904 82.93384059 -12.56396484 80.64233398 C-12.564841 79.78328964 -12.56571716 78.9242453 -12.56661987 78.03916931 C-12.56244989 75.20844607 -12.51582754 72.38011227 -12.46875 69.54980469 C-12.45755572 67.58398228 -12.44901663 65.61814311 -12.44302368 63.65229797 C-12.42014363 58.48482839 -12.36122713 53.31837497 -12.2947998 48.15130615 C-12.23335971 42.87607571 -12.20600495 37.60068063 -12.17578125 32.32519531 C-12.11148341 21.97904637 -12.00911356 11.63365074 -11.8828125 1.28808594 C-7.98565449 0.04189802 -4.05043162 0.0746221 0 0 Z M75.1171875 9.28808594 C75.1171875 17.20808594 75.1171875 25.12808594 75.1171875 33.28808594 C83.6971875 33.28808594 92.2771875 33.28808594 101.1171875 33.28808594 C97.61353152 28.89495059 97.61353152 28.89495059 93.6796875 25.22558594 C89.13347181 21.35097029 84.77541729 17.2883869 80.42211914 13.19995117 C78.10713935 10.51893755 78.10713935 10.51893755 75.1171875 9.28808594 Z M5.1171875 11.28808594 C9.86213533 16.8948896 9.86213533 16.8948896 14.94921875 21.99902344 C15.92858398 22.90587891 15.92858398 22.90587891 16.92773438 23.83105469 C17.58837891 24.435625 18.24902344 25.04019531 18.9296875 25.66308594 C20.26953371 26.90006244 21.60937759 28.13704147 22.94921875 29.37402344 C23.82670776 30.17912354 23.82670776 30.17912354 24.72192383 31.00048828 C25.53328351 31.74923911 26.33650436 32.50740279 27.1171875 33.28808594 C29.85612835 33.37667239 32.5697202 33.40332073 35.30859375 33.38574219 C36.12843246 33.38432724 36.94827118 33.38291229 37.79295349 33.38145447 C40.42190132 33.37583883 43.05076523 33.36328373 45.6796875 33.35058594 C47.45768107 33.34557295 49.23567596 33.34100969 51.01367188 33.33691406 C55.38156908 33.32671346 59.7492839 33.30714126 64.1171875 33.28808594 C64.1171875 26.02808594 64.1171875 18.76808594 64.1171875 11.28808594 C44.6471875 11.28808594 25.1771875 11.28808594 5.1171875 11.28808594 Z M-1.8828125 14.28808594 C-1.8828125 35.07808594 -1.8828125 55.86808594 -1.8828125 77.28808594 C6.3671875 77.28808594 14.6171875 77.28808594 23.1171875 77.28808594 C23.39469135 71.64293817 23.63255435 66.02181539 23.77636719 60.37524414 C23.83632287 58.46101379 23.91792877 56.54732396 24.02246094 54.63500977 C25.02151514 43.01266231 25.02151514 43.01266231 20.62768555 32.72680664 C17.72536888 29.84807751 14.4863934 27.58970654 11.1171875 25.28808594 C9.83825543 24.15557714 8.57846336 23.0003148 7.35546875 21.80761719 C6.38996094 20.91429687 5.42445312 20.02097656 4.4296875 19.10058594 C3.91986328 18.62556641 3.41003906 18.15054687 2.88476562 17.66113281 C0.81147223 15.31506029 0.81147223 15.31506029 -1.8828125 14.28808594 Z M29.1171875 39.28808594 C29.1171875 51.82808594 29.1171875 64.36808594 29.1171875 77.28808594 C40.6671875 77.28808594 52.2171875 77.28808594 64.1171875 77.28808594 C64.1171875 64.74808594 64.1171875 52.20808594 64.1171875 39.28808594 C52.5671875 39.28808594 41.0171875 39.28808594 29.1171875 39.28808594 Z M75.1171875 39.28808594 C74.90966156 45.39344771 74.73088787 51.4864395 74.62280273 57.5925293 C74.5777337 59.66554352 74.5164562 61.73827469 74.43823242 63.81030273 C73.61441765 75.61943144 73.61441765 75.61943144 77.02441406 86.58569336 C79.27519504 88.84776049 81.44831474 90.5551244 84.1171875 92.28808594 C85.42433345 93.41622878 86.71886487 94.55940144 87.9921875 95.72558594 C88.94931641 96.54542969 88.94931641 96.54542969 89.92578125 97.38183594 C93.65316606 100.62419563 97.26443544 103.99620611 100.89453125 107.34667969 C102.750855 109.39772734 102.750855 109.39772734 104.1171875 109.28808594 C104.1171875 86.18808594 104.1171875 63.08808594 104.1171875 39.28808594 C94.5471875 39.28808594 84.9771875 39.28808594 75.1171875 39.28808594 Z M-2.8828125 88.28808594 C-1.2328125 89.93808594 0.4171875 91.58808594 2.1171875 93.28808594 C2.90738281 94.08988281 3.69757812 94.89167969 4.51171875 95.71777344 C13.265888 104.64510276 13.265888 104.64510276 23.1171875 112.28808594 C23.1171875 104.36808594 23.1171875 96.44808594 23.1171875 88.28808594 C14.5371875 88.28808594 5.9571875 88.28808594 -2.8828125 88.28808594 Z M29.1171875 88.28808594 C29.1171875 97.19808594 29.1171875 106.10808594 29.1171875 115.28808594 C52.5471875 115.28808594 75.9771875 115.28808594 100.1171875 115.28808594 C95.47024815 109.78216351 95.47024815 109.78216351 90.49609375 104.75292969 C89.87025391 104.17091797 89.24441406 103.58890625 88.59960938 102.98925781 C87.64924805 102.11624023 87.64924805 102.11624023 86.6796875 101.22558594 C85.73512695 100.34676758 85.73512695 100.34676758 84.77148438 99.45019531 C82.89799075 97.71533637 81.02131031 95.98937098 79.1171875 94.28808594 C78.64255569 93.78402222 78.16792389 93.2799585 77.6789093 92.76062012 C73.53623566 88.66063881 70.56868919 87.60525149 64.76808167 87.60830688 C63.86363815 87.6392746 62.95919464 87.67024231 62.02734375 87.70214844 C60.6105558 87.71488297 60.6105558 87.71488297 59.16514587 87.72787476 C56.16879862 87.76127726 53.17521161 87.83653071 50.1796875 87.91308594 C48.14001302 87.94320259 46.10029605 87.97057541 44.06054688 87.99511719 C39.07752637 88.05591044 34.10042001 88.17333346 29.1171875 88.28808594 Z " fill="#000000" transform="translate(11.8828125,-0.2880859375)"/>
<path d="M0 0 C1.20056534 0.01441132 1.20056534 0.01441132 2.42538452 0.02911377 C5.06590739 0.06204482 7.70626176 0.10239954 10.34667969 0.14282227 C12.17941701 0.16712914 14.01216053 0.19097242 15.84490967 0.21437073 C20.66511102 0.27715514 25.48520234 0.34623779 30.30529785 0.41662598 C35.22529089 0.48736038 40.14536185 0.55214678 45.06542969 0.61743164 C54.71655698 0.74637125 64.36757851 0.88196372 74.01855469 1.02172852 C74.69224415 5.53367314 75.13891629 9.82904598 75.11621094 14.39282227 C75.11137695 16.11855469 75.11137695 16.11855469 75.10644531 17.87915039 C75.09387695 19.65128906 75.09387695 19.65128906 75.08105469 21.45922852 C75.07654297 22.66772461 75.07203125 23.8762207 75.06738281 25.12133789 C75.05565626 28.08815624 75.03772268 31.05494892 75.01855469 34.02172852 C71.38855469 34.02172852 67.75855469 34.02172852 64.01855469 34.02172852 C64.01855469 26.43172852 64.01855469 18.84172852 64.01855469 11.02172852 C42.23855469 11.02172852 20.45855469 11.02172852 -1.98144531 11.02172852 C-1.98144531 32.80172852 -1.98144531 54.58172852 -1.98144531 77.02172852 C6.26855469 77.02172852 14.51855469 77.02172852 23.01855469 77.02172852 C23.01855469 80.65172852 23.01855469 84.28172852 23.01855469 88.02172852 C10.64355469 88.51672852 10.64355469 88.51672852 -1.98144531 89.02172852 C3.24463104 93.59950239 3.24463104 93.59950239 8.48730469 98.15820312 C10.68540754 100.06912596 12.85215483 102.01247232 15.01855469 103.95922852 C15.79328125 104.62374023 16.56800781 105.28825195 17.36621094 105.97290039 C22.77251547 110.8881561 22.77251547 110.8881561 23.51464844 114.30737305 C23.51855469 116.52563477 23.51855469 116.52563477 23.01855469 120.02172852 C17.47008236 116.25385476 12.78463135 111.91692553 8.09423828 107.13085938 C5.41957608 104.40749105 2.71045626 101.77776957 -0.16894531 99.27172852 C-0.75260864 98.7504689 -1.33627197 98.22920929 -1.93762207 97.69215393 C-3.90389069 95.98118818 -3.90389069 95.98118818 -6.07629395 94.87388611 C-9.26807665 92.87855689 -11.5297693 90.93576702 -12.42480469 87.14293289 C-13.14079004 81.14871436 -12.89700146 75.11043544 -12.76269531 69.08813477 C-12.74776305 67.12518117 -12.73638068 65.16219763 -12.72839355 63.19920349 C-12.69793689 58.04782915 -12.61943015 52.89827699 -12.53076172 47.74761963 C-12.4487302 42.48572437 -12.41234517 37.22353286 -12.37207031 31.96118164 C-12.28642926 21.64723266 -12.150001 11.33463246 -11.98144531 1.02172852 C-8.04401496 -0.28617234 -4.0928524 -0.07042474 0 0 Z " fill="#5E5A95" transform="translate(11.9814453125,-0.021728515625)"/>
<path d="M0 0 C5.6925 -0.12375 5.6925 -0.12375 11.5 -0.25 C12.68013672 -0.28641602 13.86027344 -0.32283203 15.07617188 -0.36035156 C21.33872394 -0.42589482 27.00309348 -0.17056984 32 4 C34.31399047 7.85320315 34.14040936 10.5110681 33.55859375 14.87109375 C32.79559296 17.77903383 31.38376103 19.2314031 29 21 C30.175625 21.7425 30.175625 21.7425 31.375 22.5 C34.7471881 25.71160771 35.79230677 28.37017184 36 33 C34.78491819 37.5565568 33.1849986 40.63865381 29.13574219 43.20605469 C24.10732606 45.07532872 18.40525281 44.3919119 13.125 44.25 C8.79375 44.1675 4.4625 44.085 0 44 C0 29.48 0 14.96 0 0 Z M11 9 C11 11.97 11 14.94 11 18 C12.8871875 18.061875 12.8871875 18.061875 14.8125 18.125 C15.52019531 18.14820313 16.22789062 18.17140625 16.95703125 18.1953125 C19.31359719 18.13254462 19.31359719 18.13254462 22 16 C22.5 13.5 22.5 13.5 22 11 C18.91111478 8.94074319 18.29064073 8.7609626 14.8125 8.875 C13.554375 8.91625 12.29625 8.9575 11 9 Z M11 26 C11 28.97 11 31.94 11 35 C12.60332791 35.08121924 14.20784026 35.13929134 15.8125 35.1875 C16.70582031 35.22230469 17.59914062 35.25710937 18.51953125 35.29296875 C21.41647515 34.95081002 22.22555028 34.24606427 24 32 C22.91215032 28.75016865 22.91215032 28.75016865 21 26 C19.31391034 25.92794489 17.62499341 25.91613932 15.9375 25.9375 C15.01839844 25.94652344 14.09929687 25.95554687 13.15234375 25.96484375 C12.44207031 25.97644531 11.73179687 25.98804687 11 26 Z " fill="#433E7B" transform="translate(138,19)"/>
<path d="M0 0 C3.63 0 7.26 0 11 0 C10.98839844 1.29099609 10.97679687 2.58199219 10.96484375 3.91210938 C10.93217131 8.72834526 10.95224645 13.5431994 10.98779297 18.359375 C10.99587529 20.43879557 10.9898874 22.5183225 10.96923828 24.59765625 C10.44325065 36.23089859 10.44325065 36.23089859 13.71801758 47.07714844 C15.71720526 49.08764922 17.5940836 50.52004578 20 52 C21.24565696 53.06433103 22.47730864 54.14550977 23.6875 55.25 C26.64899703 57.8270534 26.64899703 57.8270534 29.61962891 60.39355469 C31.42581479 61.95676261 33.21355001 63.53929916 35 65.125 C35.58869873 65.62805664 36.17739746 66.13111328 36.78393555 66.64941406 C40.91577826 70.35605459 40.91577826 70.35605459 41.375 73.8671875 C41.189375 74.92292969 41.189375 74.92292969 41 76 C38.80078125 76.28515625 38.80078125 76.28515625 36 76 C33.60546875 74.05859375 33.60546875 74.05859375 31.1875 71.4375 C28.1584863 68.24669922 25.16184647 65.16661236 21.8125 62.3125 C18.54732402 59.52322012 15.5217688 56.57247736 12.54296875 53.48046875 C9.59864595 50.65540966 7.59615072 49.74950402 3.62036133 49.68115234 C2.29933159 49.65134781 2.29933159 49.65134781 0.95161438 49.62094116 C0.00465195 49.60938995 -0.94231049 49.59783875 -1.91796875 49.5859375 C-2.89034988 49.56657135 -3.86273102 49.5472052 -4.86457825 49.5272522 C-7.97212944 49.4674445 -11.07971765 49.4210661 -14.1875 49.375 C-16.293636 49.33682133 -18.39975637 49.29776967 -20.50585938 49.2578125 C-25.67044605 49.16174189 -30.83510582 49.07771509 -36 49 C-36 45.37 -36 41.74 -36 38 C-24.12 38 -12.24 38 0 38 C0 25.46 0 12.92 0 0 Z " fill="#9492CA" transform="translate(76,39)"/>
<path d="M0 0 C3.63 0 7.26 0 11 0 C11 14.52 11 29.04 11 44 C7.37 44 3.74 44 0 44 C0 29.48 0 14.96 0 0 Z " fill="#423E7B" transform="translate(178,19)"/>
<path d="M0 0 C0.99 0.33 1.98 0.66 3 1 C2.82374165 3.37948772 2.30280227 4.70225849 0.59765625 6.37890625 C-0.90649092 7.62115486 -2.45129851 8.81376056 -4 10 C-1.525 10.495 -1.525 10.495 1 11 C0.67 11.66 0.34 12.32 0 13 C-1.19625 12.9175 -2.3925 12.835 -3.625 12.75 C-5.87130056 12.80586655 -5.87130056 12.80586655 -8 14 C-11.33846142 18.91391512 -15 24.95999441 -15 31 C-9.10962528 26.07583299 -4.17622882 21.52210662 -0.44921875 14.75 C1.48052945 12.41973802 3.06189523 12.31497271 6 12 C5.67 13.65 5.34 15.3 5 17 C4.34 17 3.68 17 3 17 C3 17.66 3 18.32 3 19 C4.65 19 6.3 19 8 19 C8.33 19.66 8.66 20.32 9 21 C8.21625 21.7425 7.4325 22.485 6.625 23.25 C4.38733567 25.59421977 3.30629174 27.14324985 2 30 C2.55429688 29.4225 3.10859375 28.845 3.6796875 28.25 C4.40414062 27.5075 5.12859375 26.765 5.875 26 C6.59429687 25.2575 7.31359375 24.515 8.0546875 23.75 C10 22 10 22 12 22 C10.53374144 25.34820898 8.66341553 27.69266359 6.125 30.3125 C5.44695312 31.03050781 4.76890625 31.74851562 4.0703125 32.48828125 C2 34 2 34 -0.2578125 33.73046875 C-0.83273438 33.48941406 -1.40765625 33.24835938 -2 33 C-3.0169313 30.34501768 -3.13022151 29.30844625 -2.00390625 26.640625 C-1.52824219 25.85171875 -1.05257812 25.0628125 -0.5625 24.25 C-0.08941406 23.45078125 0.38367188 22.6515625 0.87109375 21.828125 C1.42990234 20.92320313 1.42990234 20.92320313 2 20 C1.5153125 20.42410156 1.030625 20.84820312 0.53125 21.28515625 C-0.87869101 22.51885463 -2.29167258 23.7490833 -3.70703125 24.9765625 C-5.20661842 26.29987793 -6.68454791 27.6482556 -8.13671875 29.0234375 C-9.15185547 29.97089844 -9.15185547 29.97089844 -10.1875 30.9375 C-11.10595703 31.81728516 -11.10595703 31.81728516 -12.04296875 32.71484375 C-14.50250417 34.32998777 -16.1148269 34.24416836 -19 34 C-20.57868538 29.20981749 -19.24449945 26.5960295 -17.0625 22.1875 C-16.49660156 21.02605469 -15.93070313 19.86460938 -15.34765625 18.66796875 C-14.90292969 17.78753906 -14.45820313 16.90710938 -14 16 C-14.99 16 -15.98 16 -17 16 C-16.9375 14.1875 -16.9375 14.1875 -16 12 C-14.29135414 11.27711137 -12.57859227 10.56120408 -10.83984375 9.9140625 C-7.69352331 8.35092241 -6.12610962 5.75819627 -4 3 C-1.875 1.0625 -1.875 1.0625 0 0 Z " fill="#000000" transform="translate(188,80)"/>
<path d="M0 0 C1.32 0 2.64 0 4 0 C3.38722388 2.96175123 2.74627478 4.38058783 1 7 C2.65 7 4.3 7 6 7 C5.41463247 10.66060821 3.916761 12.54535164 1.4375 15.25 C0.47650391 16.30960938 0.47650391 16.30960938 -0.50390625 17.390625 C-0.99761719 17.92171875 -1.49132812 18.4528125 -2 19 C-1.46890625 18.51789063 -0.9378125 18.03578125 -0.390625 17.5390625 C0.31578125 16.90742187 1.0221875 16.27578125 1.75 15.625 C2.44609375 14.99851562 3.1421875 14.37203125 3.859375 13.7265625 C5.85641909 12.11580796 7.71276772 11.1223944 10 10 C11.68711423 8.3540349 13.3545622 6.68762851 15 5 C18.22791555 2.8480563 19.28400809 2.79913557 23 3 C23.625 5.625 23.625 5.625 23 9 C20.53362864 10.79372462 18.01382092 12.14923684 15.28515625 13.5078125 C12.83473677 14.78613002 12.83473677 14.78613002 12.18359375 17.1796875 C12.09271484 18.08074219 12.09271484 18.08074219 12 19 C13.60679516 17.89966185 15.21033793 16.79457336 16.8125 15.6875 C17.70582031 15.07261719 18.59914063 14.45773438 19.51953125 13.82421875 C21.96608273 12.12668058 21.96608273 12.12668058 23.69921875 10.26953125 C25 9 25 9 27 9 C24.87946171 13.90104002 21.30413172 16.95190672 17 20 C11.97674419 21.48837209 11.97674419 21.48837209 9 20 C9 17.69 9 15.38 9 13 C8.40832031 13.66128906 7.81664062 14.32257813 7.20703125 15.00390625 C6.41683594 15.84824219 5.62664062 16.69257812 4.8125 17.5625 C4.03519531 18.40941406 3.25789063 19.25632812 2.45703125 20.12890625 C0 22 0 22 -2.80078125 21.77734375 C-3.52652344 21.52082031 -4.25226563 21.26429687 -5 21 C-4.5317879 16.22423661 -3.75668002 12.95523655 -1 9 C-3.71224618 10.61268692 -6.37352812 12.24901874 -9 14 C-7.62219103 9.98139049 -5.73478207 7.23201518 -3 4 C-2.505 3.236875 -2.01 2.47375 -1.5 1.6875 C-1.005 1.130625 -0.51 0.57375 0 0 Z " fill="#000000" transform="translate(290,92)"/>
<path d="M0 0 C2.4375 1.8125 2.4375 1.8125 3.5 4.1875 C3.41817027 7.62434887 2.52785919 9.09503305 0.4375 11.8125 C-2.25616015 14.23679413 -4.11698619 15.6639954 -7.5625 16.8125 C-6.42924509 14.26267645 -5.26348518 12.46071786 -3.4375 10.3125 C-1.1625 7.8 -1.1625 7.8 -1.5625 3.8125 C-5.42205675 2.78374516 -7.83927533 2.89039736 -11.625 4.125 C-12.46160156 4.38925781 -13.29820312 4.65351562 -14.16015625 4.92578125 C-16.42873504 5.76312659 -18.50318249 6.54205245 -20.5625 7.8125 C-21.86218824 11.71156471 -22.21765606 13.68501684 -21.5625 17.8125 C-19.44678549 20.50832978 -17.17420885 22.88801689 -14.7265625 25.28515625 C-12.35998012 28.04901689 -11.48449092 30.32210582 -10.5625 33.8125 C-12.3477137 36.09060098 -13.20447848 36.76166641 -16.12109375 37.17578125 C-17.07113281 37.15902344 -18.02117187 37.14226562 -19 37.125 C-19.94746094 37.12113281 -20.89492187 37.11726563 -21.87109375 37.11328125 C-24.56839177 36.81184156 -26.24735928 36.18625963 -28.5625 34.8125 C-28.5625 33.8225 -28.5625 32.8325 -28.5625 31.8125 C-24.6025 31.8125 -20.6425 31.8125 -16.5625 31.8125 C-16.2325 31.1525 -15.9025 30.4925 -15.5625 29.8125 C-16.20058594 29.05324219 -16.83867187 28.29398438 -17.49609375 27.51171875 C-18.32238281 26.51785156 -19.14867187 25.52398437 -20 24.5 C-20.82371094 23.51386719 -21.64742187 22.52773437 -22.49609375 21.51171875 C-25.37985558 17.74483893 -25.98068748 14.61044341 -25.90234375 9.875 C-25.28636273 6.13663243 -23.28455211 4.3028881 -20.5625 1.8125 C-13.9574291 -2.07283583 -7.17797602 -2.39265867 0 0 Z " fill="#000000" transform="translate(169.5625,78.1875)"/>
<path d="M0 0 C1.32 0.33 2.64 0.66 4 1 C2.79340289 3.74226616 1.27331021 6.04170037 -0.5 8.4375 C-2.50203694 11.17775115 -3.91871697 13.75615092 -5 17 C-4.45730469 16.51789063 -3.91460937 16.03578125 -3.35546875 15.5390625 C-2.64003906 14.90742187 -1.92460937 14.27578125 -1.1875 13.625 C-0.47980469 12.99851562 0.22789062 12.37203125 0.95703125 11.7265625 C3 10 3 10 6 8 C4.49087042 12.98012761 1.44338151 16.24259942 -2 20 C-4.375 19.75 -4.375 19.75 -7 19 C-8.3125 16.9375 -8.3125 16.9375 -9 15 C-9.8353125 16.0209375 -9.8353125 16.0209375 -10.6875 17.0625 C-11.450625 17.701875 -12.21375 18.34125 -13 19 C-15.75 18.75 -15.75 18.75 -18 18 C-17.61458121 11.96177232 -15.96960019 6.69317288 -12 2 C-8.1875 0.9375 -8.1875 0.9375 -5 1 C-6.49076434 4.2826932 -8.38620321 6.93077441 -10.625 9.75 C-11.57246094 10.94882813 -11.57246094 10.94882813 -12.5390625 12.171875 C-13.26222656 13.07679687 -13.26222656 13.07679687 -14 14 C-8.76564995 9.72706118 -4.32893185 5.18419194 0 0 Z " fill="#000000" transform="translate(275,94)"/>
<path d="M0 0 C1.32 0.33 2.64 0.66 4 1 C2.39129213 3.73480337 0.73594259 6.38408351 -1.0625 9 C-2.76954061 11.64315965 -3.95749268 14.04622927 -5 17 C-3.68412059 15.87895467 -2.37239647 14.75303035 -1.0625 13.625 C-0.33160156 12.99851562 0.39929688 12.37203125 1.15234375 11.7265625 C3.08380906 10.12252286 3.08380906 10.12252286 4 8 C4.66 8 5.32 8 6 8 C4.5407024 12.51055622 2.30806487 15.61500339 -1 19 C-3.5625 20.125 -3.5625 20.125 -6 20 C-8.3125 18.0625 -8.3125 18.0625 -10 16 C-10.391875 16.515625 -10.78375 17.03125 -11.1875 17.5625 C-11.785625 18.036875 -12.38375 18.51125 -13 19 C-15.6875 18.6875 -15.6875 18.6875 -18 18 C-19 15 -19 15 -17.85546875 12.66015625 C-17.02982422 11.37431641 -17.02982422 11.37431641 -16.1875 10.0625 C-14.30152554 7.09242621 -12.51210472 4.17910796 -11 1 C-9.02 1 -7.04 1 -5 1 C-6.70236236 4.75180831 -9.00252547 7.39511164 -11.7578125 10.4140625 C-13.20554064 11.92666909 -13.20554064 11.92666909 -13 14 C-6.12750201 7.33641956 -6.12750201 7.33641956 0 0 Z " fill="#000000" transform="translate(218,94)"/>
<path d="M0 0 C0.66 0.33 1.32 0.66 2 1 C1.82374165 3.37948772 1.30280227 4.70225849 -0.40234375 6.37890625 C-1.90649092 7.62115486 -3.45129851 8.81376056 -5 10 C-2.525 10.495 -2.525 10.495 0 11 C-2 13 -2 13 -5.25 13.4375 C-8.17904435 14.17895265 -8.94950484 14.93009226 -10.7578125 17.43359375 C-13.00193174 21.5152889 -15.06425711 25.40833141 -16 30 C-15.236875 29.236875 -14.47375 28.47375 -13.6875 27.6875 C-12.800625 26.800625 -11.91375 25.91375 -11 25 C-10.443125 24.401875 -9.88625 23.80375 -9.3125 23.1875 C-8 22 -8 22 -6 22 C-7.52012677 27.40489519 -11.27385218 30.98492628 -15 35 C-18.875 34.125 -18.875 34.125 -20 33 C-20.95054802 26.82143788 -17.89146798 22.2252957 -15 17 C-15.66 16.67 -16.32 16.34 -17 16 C-16.9375 14.1875 -16.9375 14.1875 -16 12 C-14.33391002 11.33356401 -12.66503299 10.67293994 -10.98046875 10.0546875 C-7.73425893 8.32593671 -5.75055382 5.57849516 -3.48046875 2.7421875 C-2 1 -2 1 0 0 Z " fill="#000000" transform="translate(263,80)"/>
<path d="M0 0 C0.625 1.8125 0.625 1.8125 1 4 C0.01 5.485 0.01 5.485 -1 7 C-1.99 6.67 -2.98 6.34 -4 6 C-4 5.34 -4 4.68 -4 4 C-9.95027492 9.64695429 -9.95027492 9.64695429 -13 17 C-6.72764366 14.24896652 -2.5710874 11.08533473 2 6 C2.66 6.66 3.32 7.32 4 8 C2.56564079 9.4614226 1.12739414 10.91903049 -0.3125 12.375 C-1.11300781 13.18710938 -1.91351563 13.99921875 -2.73828125 14.8359375 C-5.55076805 17.52698705 -7.11218607 18.94564404 -11.0625 19.1875 C-14 19 -14 19 -16 18 C-16.77361784 13.35829298 -16.84716009 11.19286986 -14.06640625 7.27734375 C-6.20124473 -1.46871586 -6.20124473 -1.46871586 0 0 Z " fill="#000000" transform="translate(239,95)"/>
</svg>
